<svg width="30" height="25" viewBox="0 0 30 25" fill="none" xmlns="http://www.w3.org/2000/svg">
<path d="M5.02125 18.2402C5.21587 18.4147 5.365 18.6253 5.45802 18.8571C5.55103 19.089 5.58564 19.3362 5.55937 19.5814C5.4276 20.7159 5.17777 21.8369 4.81312 22.93C7.42875 22.3892 9.02625 21.763 9.75187 21.4349C10.1634 21.2487 10.6374 21.2046 11.0831 21.311C12.3608 21.6151 13.6777 21.7682 15 21.7664C22.4925 21.7664 28.125 17.0665 28.125 11.7204C28.125 6.37588 22.4925 1.67434 15 1.67434C7.5075 1.67434 1.875 6.37588 1.875 11.7204C1.875 14.1783 3.03187 16.4587 5.02125 18.2402ZM4.09687 24.7785C3.65263 24.8572 3.20694 24.9292 2.76 24.9945C2.385 25.0481 2.1 24.6998 2.24813 24.3884C2.41461 24.0378 2.5672 23.682 2.70562 23.3218L2.71125 23.3051C3.17625 22.0996 3.555 20.7132 3.69375 19.4223C1.39313 17.3629 0 14.6672 0 11.7204C0 5.24737 6.71625 0 15 0C23.2838 0 30 5.24737 30 11.7204C30 18.1933 23.2838 23.4407 15 23.4407C13.5143 23.4425 12.0349 23.2703 10.5994 22.9284C9.62437 23.3687 7.52625 24.1707 4.09687 24.7785Z" fill="black"/>
<path d="M7.5 7.53453C7.5 7.31249 7.59877 7.09956 7.77459 6.94256C7.9504 6.78556 8.18886 6.69736 8.4375 6.69736H21.5625C21.8111 6.69736 22.0496 6.78556 22.2254 6.94256C22.4012 7.09956 22.5 7.31249 22.5 7.53453C22.5 7.75656 22.4012 7.96949 22.2254 8.12649C22.0496 8.28349 21.8111 8.37169 21.5625 8.37169H8.4375C8.18886 8.37169 7.9504 8.28349 7.77459 8.12649C7.59877 7.96949 7.5 7.75656 7.5 7.53453ZM7.5 11.7204C7.5 11.4983 7.59877 11.2854 7.77459 11.1284C7.9504 10.9714 8.18886 10.8832 8.4375 10.8832H21.5625C21.8111 10.8832 22.0496 10.9714 22.2254 11.1284C22.4012 11.2854 22.5 11.4983 22.5 11.7204C22.5 11.9424 22.4012 12.1553 22.2254 12.3123C22.0496 12.4693 21.8111 12.5575 21.5625 12.5575H8.4375C8.18886 12.5575 7.9504 12.4693 7.77459 12.3123C7.59877 12.1553 7.5 11.9424 7.5 11.7204ZM7.5 15.9062C7.5 15.6842 7.59877 15.4712 7.77459 15.3142C7.9504 15.1572 8.18886 15.069 8.4375 15.069H15.9375C16.1861 15.069 16.4246 15.1572 16.6004 15.3142C16.7762 15.4712 16.875 15.6842 16.875 15.9062C16.875 16.1282 16.7762 16.3412 16.6004 16.4982C16.4246 16.6552 16.1861 16.7434 15.9375 16.7434H8.4375C8.18886 16.7434 7.9504 16.6552 7.77459 16.4982C7.59877 16.3412 7.5 16.1282 7.5 15.9062Z" fill="black"/>
</svg>
