<svg width="100" height="100" viewBox="0 0 100 100" fill="none" xmlns="http://www.w3.org/2000/svg">
<path d="M42.9167 28.0833C43.1958 28.3843 43.4128 28.7372 43.5555 29.1221C43.6982 29.5069 43.7636 29.9161 43.7482 30.3262C43.7327 30.7363 43.6366 31.1394 43.4653 31.5124C43.294 31.8854 43.051 32.221 42.75 32.5L30.6333 43.75L42.75 55C43.0509 55.2791 43.294 55.6147 43.4652 55.9876C43.6365 56.3606 43.7326 56.7637 43.7481 57.1738C43.7635 57.5839 43.6981 57.9931 43.5554 58.3779C43.4128 58.7628 43.1957 59.1157 42.9167 59.4167C42.6376 59.7176 42.302 59.9607 41.929 60.1319C41.556 60.3031 41.153 60.3993 40.7429 60.4147C40.3327 60.4302 39.9236 60.3647 39.5387 60.2221C39.1539 60.0794 38.8009 59.8624 38.5 59.5833L23.9167 46.0417C23.6011 45.7491 23.3494 45.3946 23.1773 45.0003C23.0051 44.6059 22.9163 44.1803 22.9163 43.75C22.9163 43.3197 23.0051 42.8941 23.1773 42.4998C23.3494 42.1054 23.6011 41.7509 23.9167 41.4583L38.5 27.9167C38.8009 27.6376 39.1539 27.4205 39.5387 27.2778C39.9236 27.1352 40.3327 27.0697 40.7429 27.0852C41.153 27.1006 41.5561 27.1968 41.929 27.368C42.302 27.5393 42.6376 27.7824 42.9167 28.0833V28.0833ZM57.25 32.5C56.6422 31.9364 56.2832 31.1545 56.2519 30.3262C56.2207 29.4979 56.5197 28.6911 57.0833 28.0833C57.6469 27.4756 58.4289 27.1165 59.2572 27.0853C60.0854 27.054 60.8922 27.3531 61.5 27.9167L76.0833 41.4583C76.3989 41.7509 76.6506 42.1054 76.8227 42.4998C76.9949 42.8941 77.0837 43.3197 77.0837 43.75C77.0837 44.1803 76.9949 44.6059 76.8227 45.0003C76.6506 45.3946 76.3989 45.7491 76.0833 46.0417L61.5 59.5833C60.8922 60.1469 60.0854 60.446 59.2572 60.4147C58.4289 60.3835 57.6469 60.0245 57.0833 59.4167C56.5197 58.8089 56.2207 58.0021 56.2519 57.1738C56.2832 56.3455 56.6422 55.5636 57.25 55L69.3667 43.75L57.25 32.5V32.5Z" fill="#3F51B5"/>
<path fill-rule="evenodd" clip-rule="evenodd" d="M6.25 17.7083C6.25 13.6833 9.51667 10.4167 13.5417 10.4167H86.4583C90.4833 10.4167 93.75 13.6833 93.75 17.7083V69.7917C93.75 71.7255 92.9818 73.5802 91.6143 74.9477C90.2469 76.3151 88.3922 77.0833 86.4583 77.0833H46.0833L31.1958 91.9708C30.3468 92.8194 29.2653 93.3973 28.0879 93.6313C26.9106 93.8654 25.6903 93.7452 24.5812 93.2859C23.4722 92.8266 22.5242 92.0488 21.8571 91.0508C21.19 90.0529 20.8338 88.8796 20.8333 87.6792V77.0833H13.5417C11.6078 77.0833 9.75313 76.3151 8.38568 74.9477C7.01823 73.5802 6.25 71.7255 6.25 69.7917V17.7083ZM13.5417 16.6667C13.2654 16.6667 13.0004 16.7764 12.8051 16.9718C12.6097 17.1671 12.5 17.4321 12.5 17.7083V69.7917C12.5 70.3667 12.9667 70.8333 13.5417 70.8333H23.9583C24.7871 70.8333 25.582 71.1626 26.168 71.7486C26.7541 72.3347 27.0833 73.1295 27.0833 73.9583V87.25L42.5833 71.75C43.1688 71.1638 43.9631 70.8341 44.7917 70.8333H86.4583C86.7346 70.8333 86.9996 70.7236 87.1949 70.5282C87.3903 70.3329 87.5 70.0679 87.5 69.7917V17.7083C87.5 17.4321 87.3903 17.1671 87.1949 16.9718C86.9996 16.7764 86.7346 16.6667 86.4583 16.6667H13.5417Z" fill="#3F51B5"/>
</svg>
