<svg width="333" height="264" viewBox="0 0 333 264" fill="none" xmlns="http://www.w3.org/2000/svg">
<path d="M142.912 74.14C143.842 74.9344 144.565 75.8663 145.04 76.8822C145.515 77.8982 145.733 78.9784 145.681 80.0611C145.63 81.1439 145.31 82.208 144.739 83.1927C144.169 84.1774 143.36 85.0633 142.357 85.8L102.009 115.5L142.357 145.2C143.36 145.937 144.169 146.823 144.739 147.807C145.309 148.792 145.629 149.856 145.681 150.939C145.733 152.022 145.515 153.102 145.04 154.118C144.565 155.134 143.842 156.065 142.912 156.86C141.983 157.654 140.866 158.296 139.624 158.748C138.382 159.2 137.039 159.454 135.674 159.495C134.308 159.536 132.945 159.363 131.664 158.986C130.383 158.61 129.207 158.037 128.205 157.3L79.6425 121.55C78.5918 120.778 77.7535 119.842 77.1803 118.801C76.607 117.76 76.3111 116.636 76.3111 115.5C76.3111 114.364 76.607 113.24 77.1803 112.199C77.7535 111.158 78.5918 110.222 79.6425 109.45L128.205 73.7C129.207 72.9632 130.382 72.3901 131.664 72.0135C132.945 71.6368 134.308 71.464 135.674 71.5048C137.039 71.5457 138.382 71.7994 139.624 72.2516C140.866 72.7037 141.983 73.3454 142.912 74.14ZM190.642 85.8C188.619 84.3121 187.423 82.2478 187.319 80.0611C187.215 77.8744 188.211 75.7446 190.087 74.14C191.964 72.5354 194.568 71.5877 197.326 71.5051C200.084 71.4226 202.771 72.2121 204.795 73.7L253.357 109.45C254.408 110.222 255.246 111.158 255.82 112.199C256.393 113.24 256.689 114.364 256.689 115.5C256.689 116.636 256.393 117.76 255.82 118.801C255.246 119.842 254.408 120.778 253.357 121.55L204.795 157.3C202.771 158.788 200.084 159.577 197.326 159.495C194.568 159.412 191.964 158.465 190.087 156.86C188.211 155.255 187.215 153.126 187.319 150.939C187.423 148.752 188.619 146.688 190.642 145.2L230.991 115.5L190.642 85.8Z" fill="#184C34"/>
<path fill-rule="evenodd" clip-rule="evenodd" d="M20.8125 46.75C20.8125 36.124 31.6905 27.5 45.0938 27.5H287.906C301.31 27.5 312.188 36.124 312.188 46.75V184.25C312.188 189.355 309.629 194.252 305.076 197.862C300.522 201.472 294.346 203.5 287.906 203.5H153.458L103.882 242.803C101.055 245.043 97.4534 246.569 93.5329 247.187C89.6123 247.805 85.5486 247.487 81.8555 246.275C78.1624 245.062 75.0057 243.009 72.7842 240.374C70.5628 237.74 69.3764 234.642 69.375 231.473V203.5H45.0938C38.654 203.5 32.4779 201.472 27.9243 197.862C23.3707 194.252 20.8125 189.355 20.8125 184.25V46.75ZM45.0938 44C44.1738 44 43.2915 44.2897 42.641 44.8055C41.9905 45.3212 41.625 46.0207 41.625 46.75V184.25C41.625 185.768 43.179 187 45.0938 187H79.7812C82.5412 187 85.188 187.869 87.1396 189.416C89.0911 190.964 90.1875 193.062 90.1875 195.25V230.34L141.803 189.42C143.752 187.872 146.397 187.002 149.156 187H287.906C288.826 187 289.709 186.71 290.359 186.195C291.01 185.679 291.375 184.979 291.375 184.25V46.75C291.375 46.0207 291.01 45.3212 290.359 44.8055C289.709 44.2897 288.826 44 287.906 44H45.0938Z" fill="#184C34"/>
</svg>
