<svg width="30" height="25" viewBox="0 0 30 25" fill="none" xmlns="http://www.w3.org/2000/svg">
<path d="M8 0C4.7 0 2 3.75 2 8.33333C2 11.0889 2.977 13.5417 4.469 15.0611C1.832 16.8778 0 20.6444 0 25H2C2 20.3833 4.676 16.6667 8 16.6667C11.324 16.6667 14 20.3833 14 25H16C16 20.3833 18.676 16.6667 22 16.6667C25.324 16.6667 28 20.3833 28 25H30C30 20.6431 28.168 16.8778 25.531 15.0611C26.2945 14.2884 26.916 13.2765 27.345 12.1075C27.774 10.9385 27.9984 9.64542 28 8.33333C28 3.75 25.3 0 22 0C18.7 0 16 3.75 16 8.33333C16 11.0889 16.977 13.5417 18.469 15.0611C17.0079 16.0588 15.7986 17.6475 15 19.6181C14.2014 17.6475 12.9921 16.0588 11.531 15.0611C12.2945 14.2884 12.916 13.2765 13.345 12.1075C13.774 10.9385 13.9984 9.64542 14 8.33333C14 3.75 11.3 0 8 0ZM8 2.77778C10.223 2.77778 12 5.24583 12 8.33333C12 11.4208 10.223 13.8889 8 13.8889C5.777 13.8889 4 11.4208 4 8.33333C4 5.24583 5.777 2.77778 8 2.77778ZM22 2.77778C24.223 2.77778 26 5.24583 26 8.33333C26 11.4208 24.223 13.8889 22 13.8889C19.777 13.8889 18 11.4208 18 8.33333C18 5.24583 19.777 2.77778 22 2.77778Z" fill="#303F9F"/>
</svg>
