<svg width="100" height="100" viewBox="0 0 100 100" fill="none" xmlns="http://www.w3.org/2000/svg">
<path d="M83.3333 33.3333H59.95L64.6292 19.3041C65.4708 16.7708 65.0458 13.9625 63.4833 11.7958C61.9208 9.62915 59.3875 8.33331 56.7167 8.33331H50C48.7625 8.33331 47.5917 8.88331 46.7958 9.83331L27.2125 33.3333H16.6667C12.0708 33.3333 8.33333 37.0708 8.33333 41.6666V79.1666C8.33333 83.7625 12.0708 87.5 16.6667 87.5H72.1125C73.8079 87.4943 75.4616 86.9743 76.8551 86.0086C78.2485 85.0429 79.3161 83.6771 79.9167 82.0916L91.4042 51.4625C91.5786 50.9946 91.6675 50.4993 91.6667 50V41.6666C91.6667 37.0708 87.9292 33.3333 83.3333 33.3333ZM16.6667 41.6666H25V79.1666H16.6667V41.6666ZM83.3333 49.2458L72.1125 79.1666H33.3333V39.0083L51.95 16.6666H56.725L50.2167 36.1791C50.0054 36.8055 49.9464 37.4731 50.0448 38.1268C50.1431 38.7804 50.3958 39.4012 50.7819 39.9377C51.1681 40.4741 51.6766 40.9108 52.2652 41.2115C52.8538 41.5122 53.5057 41.6682 54.1667 41.6666H83.3333V49.2458Z" fill="black"/>
</svg>
