<svg width="30" height="25" viewBox="0 0 30 25" fill="none" xmlns="http://www.w3.org/2000/svg">
<path fill-rule="evenodd" clip-rule="evenodd" d="M20.4545 9.09091C20.4545 10.2964 19.8798 11.4526 18.8569 12.305C17.834 13.1575 16.4466 13.6364 15 13.6364C13.5533 13.6364 12.1659 13.1575 11.143 12.305C10.1201 11.4526 9.54541 10.2964 9.54541 9.09091C9.54541 7.88538 10.1201 6.72923 11.143 5.87679C12.1659 5.02435 13.5533 4.54546 15 4.54546C16.4466 4.54546 17.834 5.02435 18.8569 5.87679C19.8798 6.72923 20.4545 7.88538 20.4545 9.09091ZM17.7272 9.09091C17.7272 9.69368 17.4399 10.2718 16.9284 10.698C16.417 11.1242 15.7233 11.3636 15 11.3636C14.2766 11.3636 13.5829 11.1242 13.0715 10.698C12.56 10.2718 12.2727 9.69368 12.2727 9.09091C12.2727 8.48815 12.56 7.91007 13.0715 7.48385C13.5829 7.05763 14.2766 6.81818 15 6.81818C15.7233 6.81818 16.417 7.05763 16.9284 7.48385C17.4399 7.91007 17.7272 8.48815 17.7272 9.09091Z" fill="#303F9F"/>
<path fill-rule="evenodd" clip-rule="evenodd" d="M15 0C6.71591 0 0 5.59659 0 12.5C0 19.4034 6.71591 25 15 25C23.2841 25 30 19.4034 30 12.5C30 5.59659 23.2841 0 15 0ZM2.72727 12.5C2.72727 14.875 3.69955 17.0614 5.32909 18.7977C6.4735 17.5453 7.94986 16.5304 9.64286 15.8322C11.3359 15.134 13.1997 14.7714 15.0886 14.7727C16.9532 14.7713 18.7935 15.1245 20.4695 15.8054C22.1454 16.4864 23.6127 17.4772 24.7595 18.7023C25.9411 17.4109 26.7366 15.9037 27.0803 14.3052C27.424 12.7068 27.306 11.0631 26.7361 9.51021C26.1662 7.95731 25.1608 6.53983 23.8029 5.37504C22.4451 4.21026 20.774 3.33166 18.9278 2.81194C17.0816 2.29222 15.1135 2.14633 13.1862 2.38633C11.2589 2.62633 9.4279 3.24533 7.84469 4.19211C6.26147 5.13888 4.97156 6.38622 4.08168 7.8309C3.19179 9.27559 2.72752 10.8761 2.72727 12.5ZM15 22.7273C12.1827 22.7308 9.45036 21.9231 7.26545 20.4409C8.14491 19.3917 9.31546 18.5351 10.6775 17.944C12.0396 17.3528 13.5529 17.0445 15.0886 17.0455C16.6052 17.0444 18.1002 17.345 19.4494 17.9221C20.7987 18.4992 21.9632 19.3362 22.8464 20.3636C20.6445 21.894 17.8672 22.7306 15 22.7273Z" fill="#303F9F"/>
</svg>
