<svg width="100" height="100" viewBox="0 0 100 100" fill="none" xmlns="http://www.w3.org/2000/svg">
<g clip-path="url(#clip0_103_2)">
<path d="M99.0876 0.91249C99.5203 1.34582 99.8161 1.8967 99.9383 2.49672C100.061 3.09674 100.004 3.71945 99.7751 4.28749L63.4064 95.2062C63.0859 96.0069 62.5507 96.7037 61.8597 97.2198C61.1687 97.7359 60.3488 98.0514 59.49 98.1315C58.6313 98.2116 57.7671 98.0533 56.9926 97.6739C56.2181 97.2945 55.5632 96.7088 55.1001 95.9812L35.2376 64.7625L4.01887 44.9C3.28961 44.4374 2.70232 43.7823 2.32181 43.007C1.9413 42.2318 1.78236 41.3665 1.86253 40.5066C1.9427 39.6467 2.25886 38.8257 2.77613 38.1341C3.2934 37.4425 3.99166 36.9073 4.79387 36.5875L95.7126 0.23124C96.2807 0.00256662 96.9034 -0.0541816 97.5034 0.0680445C98.1034 0.190271 98.6543 0.486084 99.0876 0.91874V0.91249ZM41.4751 62.9375L58.7314 90.05L88.3126 16.1L41.4751 62.9375ZM83.8939 11.6812L9.94387 41.2625L37.0626 58.5125L83.9001 11.6812H83.8939Z" fill="black"/>
</g>
<defs>
<clipPath id="clip0_103_2">
<rect width="100" height="100" fill="white"/>
</clipPath>
</defs>
</svg>
