<svg width="84" height="80" viewBox="0 0 84 80" fill="none" xmlns="http://www.w3.org/2000/svg">
<path d="M75.3333 0.5H71.1666V54.6667H75.3333C77.5434 54.6667 79.663 53.7887 81.2258 52.2259C82.7886 50.6631 83.6666 48.5435 83.6666 46.3333V8.83333C83.6666 6.6232 82.7886 4.50358 81.2258 2.94078C79.663 1.37797 77.5434 0.5 75.3333 0.5ZM8.66658 54.6667H37.8333L33.1583 68.7C32.7411 69.9524 32.6275 71.2861 32.8267 72.591C33.0259 73.896 33.5323 75.1349 34.3042 76.2058C35.076 77.2768 36.0913 78.149 37.2662 78.7507C38.4412 79.3524 39.7423 79.6663 41.0624 79.6667H41.9999L62.8332 57.0083V0.5H16.9999L0.595752 36.5375L0.333252 37.7583V46.3333C0.333252 48.5435 1.21123 50.6631 2.77403 52.2259C4.33683 53.7887 6.45645 54.6667 8.66658 54.6667Z" fill="black"/>
</svg>
