<svg width="100" height="100" viewBox="0 0 100 100" fill="none" xmlns="http://www.w3.org/2000/svg">
<path d="M66.2402 64.0039C68.6035 62.7344 71.3086 62.0117 74.1895 62.0117H74.1992C74.4922 62.0117 74.6289 61.6602 74.4141 61.4648C71.4181 58.7762 67.9957 56.6046 64.2871 55.0391C64.248 55.0195 64.209 55.0098 64.1699 54.9902C70.2344 50.5859 74.1797 43.4277 74.1797 35.3516C74.1797 21.9727 63.3594 11.1328 50.0098 11.1328C36.6602 11.1328 25.8496 21.9727 25.8496 35.3516C25.8496 43.4277 29.7949 50.5859 35.8691 54.9902C35.8301 55.0098 35.791 55.0195 35.752 55.0391C31.3867 56.8848 27.4707 59.5312 24.1016 62.9102C20.7519 66.2538 18.0851 70.2175 16.25 74.5801C14.4445 78.8522 13.47 83.4293 13.3789 88.0664C13.3763 88.1706 13.3946 88.2743 13.4327 88.3714C13.4708 88.4684 13.5279 88.5569 13.6007 88.6315C13.6735 88.7061 13.7605 88.7654 13.8566 88.8059C13.9527 88.8464 14.0559 88.8672 14.1602 88.8672H20.0098C20.4297 88.8672 20.7812 88.5254 20.791 88.1055C20.9863 80.5664 24.0039 73.5059 29.3457 68.1543C34.8633 62.6172 42.207 59.5703 50.0195 59.5703C55.5566 59.5703 60.8691 61.1035 65.4492 63.9746C65.5669 64.0485 65.7019 64.0902 65.8408 64.0953C65.9797 64.1005 66.1174 64.0689 66.2402 64.0039ZM50.0195 52.1484C45.5469 52.1484 41.3379 50.4004 38.1641 47.2266C36.6025 45.669 35.3645 43.8179 34.5215 41.7799C33.6784 39.7418 33.247 37.5571 33.252 35.3516C33.252 30.8691 35 26.6504 38.1641 23.4766C41.3281 20.3027 45.5371 18.5547 50.0195 18.5547C54.502 18.5547 58.7012 20.3027 61.875 23.4766C63.4366 25.0341 64.6745 26.8852 65.5176 28.9233C66.3606 30.9613 66.7921 33.146 66.7871 35.3516C66.7871 39.834 65.0391 44.0527 61.875 47.2266C58.7012 50.4004 54.4922 52.1484 50.0195 52.1484ZM85.9375 75.3906H62.5C62.0703 75.3906 61.7188 75.7422 61.7188 76.1719V81.6406C61.7188 82.0703 62.0703 82.4219 62.5 82.4219H85.9375C86.3672 82.4219 86.7188 82.0703 86.7188 81.6406V76.1719C86.7188 75.7422 86.3672 75.3906 85.9375 75.3906Z" fill="black"/>
</svg>
