<svg width="100" height="100" viewBox="0 0 100 100" fill="none" xmlns="http://www.w3.org/2000/svg">
<path d="M83.3333 12.5H27.8875C26.1921 12.5056 24.5384 13.0257 23.1449 13.9913C21.7515 14.957 20.6839 16.3229 20.0833 17.9083L8.59585 48.5375C8.42143 49.0053 8.33252 49.5007 8.33335 50V58.3333C8.33335 62.9292 12.0708 66.6667 16.6667 66.6667H40.05L35.375 80.6958C34.9582 81.9485 34.8444 83.2821 35.0428 84.5873C35.2413 85.8925 35.7464 87.132 36.5167 88.2042C38.0833 90.3708 40.6083 91.6667 43.2833 91.6667H50C51.2375 91.6667 52.4083 91.1167 53.2042 90.1667L72.7875 66.6667H83.3333C87.9292 66.6667 91.6667 62.9292 91.6667 58.3333V20.8333C91.6667 16.2375 87.9292 12.5 83.3333 12.5ZM48.0458 83.3333H43.275L49.7833 63.8167C49.9919 63.1906 50.0487 62.524 49.9492 61.8717C49.8497 61.2194 49.5967 60.6 49.211 60.0646C48.8253 59.5292 48.318 59.093 47.7307 58.792C47.1435 58.491 46.4932 58.3338 45.8333 58.3333H16.6667V50.7542L27.8875 20.8333H66.6667V60.9917L48.0458 83.3333ZM75 58.3333V20.8333H83.3333L83.3375 58.3333H75Z" fill="black"/>
</svg>
