<svg width="30" height="25" viewBox="0 0 30 25" fill="none" xmlns="http://www.w3.org/2000/svg">
<path d="M28.7295 19.9245C29.5527 18.5452 29.9888 17.0065 29.9998 15.4417C30.0108 13.8769 29.5964 12.3334 28.7926 10.9448C27.9888 9.55629 26.8197 8.36471 25.3869 7.47337C23.954 6.58204 22.3006 6.01786 20.5699 5.82975C20.0001 4.63679 19.1672 3.55966 18.1214 2.6632C17.0756 1.76675 15.8386 1.0695 14.4847 0.613438C13.1309 0.157375 11.6882 -0.0480753 10.2435 0.00945551C8.79888 0.0669863 7.38214 0.386308 6.07859 0.948199C4.77504 1.51009 3.61164 2.30293 2.65841 3.27899C1.70519 4.25506 0.981854 5.39416 0.531955 6.62773C0.0820557 7.8613 -0.0851057 9.16382 0.040533 10.4569C0.166172 11.75 0.582013 13.0069 1.26302 14.1519L0.432331 16.7496C0.336052 17.0385 0.328662 17.3455 0.410945 17.6379C0.493228 17.9303 0.662117 18.1973 0.899715 18.4106C1.13731 18.6239 1.43476 18.7755 1.76055 18.8493C2.08633 18.9232 2.42831 18.9165 2.75023 18.8301L5.64425 18.0845C6.81961 18.6469 8.1005 19.0097 9.42256 19.1548C10.0065 20.3833 10.8691 21.4891 11.9552 22.402C13.0414 23.3149 14.3274 24.0147 15.7314 24.4571C17.1354 24.8994 18.6267 25.0745 20.1102 24.9712C21.5937 24.8679 23.037 24.4885 24.3482 23.8571L27.2422 24.6027C27.5642 24.6891 27.9061 24.6958 28.2319 24.6219C28.5577 24.5481 28.8552 24.3965 29.0928 24.1832C29.3304 23.9699 29.4993 23.7029 29.5815 23.4105C29.6638 23.1181 29.6564 22.8111 29.5601 22.5222L28.7295 19.9245ZM5.79164 16.0881C5.69197 16.0875 5.59271 16.0996 5.49687 16.1242L2.61625 16.8698L3.44694 14.2842C3.48703 14.1594 3.49702 14.0283 3.47623 13.8997C3.45543 13.7711 3.40434 13.648 3.32636 13.5386C2.54726 12.3459 2.13571 10.9886 2.13391 9.60599C2.13391 8.08371 2.63682 6.59561 3.57904 5.32988C4.52126 4.06414 5.86047 3.07763 7.42733 2.49507C8.99419 1.91252 10.7183 1.7601 12.3817 2.05708C14.045 2.35406 15.5729 3.08711 16.7722 4.16353C17.9714 5.23995 18.7881 6.61138 19.1189 8.10442C19.4498 9.59745 19.28 11.145 18.631 12.5514C17.9819 13.9578 16.8829 15.1599 15.4727 16.0056C14.0626 16.8514 12.4047 17.3028 10.7088 17.3028C9.16846 17.3012 7.65634 16.9318 6.32757 16.2325C6.16873 16.1379 5.98224 16.0877 5.79164 16.0881ZM26.6661 19.3112C26.5881 19.4206 26.537 19.5437 26.5163 19.6723C26.4955 19.8009 26.5054 19.932 26.5455 20.0568L27.3762 22.6424L24.4956 21.8968C24.3565 21.8608 24.2105 21.8519 24.0673 21.8705C23.924 21.8892 23.7869 21.9351 23.6649 22.0051C22.6827 22.5252 21.5951 22.8649 20.4653 23.0043C19.3354 23.1438 18.186 23.0801 17.0839 22.8171C15.9817 22.5541 14.9488 22.097 14.0453 21.4724C13.1417 20.8478 12.3856 20.0682 11.8209 19.1789C14.4552 18.9269 16.8929 17.8102 18.666 16.0433C20.4391 14.2765 21.4225 11.984 21.4274 9.60599C21.4238 9.02934 21.3655 8.45401 21.2532 7.88623C23.1336 8.28455 24.809 9.24118 26.0079 10.6011C27.2068 11.961 27.8589 13.6444 27.8586 15.3786C27.8568 16.7612 27.4452 18.1185 26.6661 19.3112Z" fill="#303F9F"/>
</svg>
