<svg width="84" height="80" viewBox="0 0 84 80" fill="none" xmlns="http://www.w3.org/2000/svg">
<path d="M8.66658 79.5H12.8333V25.3333H8.66658C6.45645 25.3333 4.33683 26.2113 2.77403 27.7741C1.21123 29.3369 0.333252 31.4565 0.333252 33.6667V71.1667C0.333252 73.3768 1.21123 75.4964 2.77403 77.0592C4.33683 78.622 6.45645 79.5 8.66658 79.5ZM75.3333 25.3333H46.1666L50.8416 11.3C51.2587 10.0476 51.3724 8.71395 51.1731 7.40899C50.9739 6.10403 50.4675 4.86507 49.6957 3.79415C48.9238 2.72324 47.9086 1.85102 46.7336 1.24933C45.5586 0.647633 44.2575 0.333686 42.9374 0.333344H41.9999L21.1666 22.9917V79.5H66.9999L83.2999 43.6833L83.6666 42V33.6667C83.6666 31.4565 82.7886 29.3369 81.2258 27.7741C79.663 26.2113 77.5434 25.3333 75.3333 25.3333Z" fill="black"/>
</svg>
